<svg xmlns="http://www.w3.org/2000/svg" aria-hidden="true" style="position:absolute;width:0;height:0;overflow:hidden">
  <defs>
    <symbol id="icon-close" viewBox="0 0 32 32">
      <path fill="#fff" d="m8.534 25.333-1.867-1.867 7.467-7.467-7.467-7.467 1.867-1.867 7.467 7.467 7.467-7.467 1.867 1.867-7.467 7.467 7.467 7.467-1.867 1.867-7.467-7.467-7.467 7.467z" style="fill:var(--color1, #fff)"/>
    </symbol>
    <symbol id="icon-menu" viewBox="0 0 32 32">
      <path fill="#fff" d="M4.885 25.143c-.305 0-.56-.117-.766-.35s-.309-.523-.309-.867c0-.345.103-.634.309-.867s.462-.349.766-.349h22.23c.305 0 .56.117.766.35s.309.523.309.867c0 .345-.103.634-.309.867s-.462.349-.766.349H4.885zm0-7.926c-.305 0-.56-.117-.766-.35S3.81 16.344 3.81 16c0-.345.103-.634.309-.867s.462-.35.766-.35h22.23c.305 0 .56.117.766.35s.309.523.309.867c0 .345-.103.634-.309.867s-.462.349-.766.349H4.885zm0-7.926c-.305 0-.56-.117-.766-.35s-.309-.522-.309-.867.103-.634.309-.867.462-.35.766-.35h22.23c.305 0 .56.117.766.35s.309.522.309.867-.103.634-.309.867-.462.35-.766.35H4.885z" style="fill:var(--color1, #fff)"/>
    </symbol>
  </defs>
</svg>
